<svg width="24" height="24" viewBox="0 0 24 24" fill="none" xmlns="http://www.w3.org/2000/svg">
<rect width="24" height="24" rx="12" fill="url(#paint0_linear_3981_4590)"/>
<g clip-path="url(#clip0_3981_4590)">
<g clip-path="url(#clip1_3981_4590)">
<path d="M12.1516 5.05356C13.162 5.833 15.6613 8.25077 15.0784 12.7583C15.0784 12.7583 15.7295 12.3801 16.3085 11.6801C16.4423 11.5186 16.7107 11.5806 16.756 11.7833C16.8566 12.234 16.9786 12.9559 16.9988 13.8689C17.0599 16.6276 14.8257 18.9951 11.9914 19C9.24315 19.0047 7 16.8173 7 14.1314C7 11.8041 8.15722 10.5894 8.60284 8.58729C8.63952 8.42234 8.83409 8.34336 8.98311 8.42968C9.32124 8.62536 9.85589 8.9919 10.2057 9.51275C10.2057 9.51275 11.628 7.75866 11.7394 5.24204C11.7484 5.03866 11.9878 4.92704 12.1516 5.05356Z" fill="#FFAA5F"/>
<path d="M14.701 14.1079C14.3019 14.6911 13.796 14.8236 13.796 14.8236C14.0008 12.4311 13.0608 10.6755 12.6738 10.0653C12.619 9.9788 12.483 10.0016 12.4609 10.101C12.1069 11.6993 11.1567 12.587 11.1567 12.587C10.8474 12.2359 10.5535 12.0921 10.4006 12.0366C10.3405 12.0148 10.2762 12.047 10.2539 12.1055C9.86353 13.1246 9.12581 13.9114 8.95796 15.0829C8.71092 16.8067 9.99749 18.4406 11.7811 18.5612C13.5801 18.6828 15.0782 17.298 15.0782 15.5727C15.0782 14.8786 14.9835 14.4018 14.911 14.1389C14.8849 14.0439 14.7568 14.0262 14.701 14.1079Z" fill="#FFE17D"/>
<path d="M12.0748 13.8426C12.0378 13.7519 11.9194 13.7269 11.8518 13.7991C11.4485 14.2303 10.3645 15.4924 10.3645 16.6037C10.3645 17.4834 11.0971 18.1967 12.0009 18.1967C12.9045 18.1967 13.6371 17.4834 13.6371 16.6037C13.6371 15.7673 12.5807 15.0815 12.0748 13.8426Z" fill="#FFF5D6"/>
<path d="M11.9488 18.9978C11.4155 18.9588 6.82899 18.1262 8.41045 12.5086C9.00061 10.4126 9.10397 8.50225 9.10397 8.50225C9.06182 8.47624 9.02089 8.45153 8.98311 8.42965C8.83409 8.34334 8.63952 8.42232 8.60284 8.58727C8.15722 10.5892 7 11.8041 7 14.1314C7 16.8032 9.21109 18.9704 11.9488 18.9978Z" fill="#FF8C5A"/>
</g>
</g>
<defs>
<linearGradient id="paint0_linear_3981_4590" x1="9.78081" y1="-1.59641" x2="14.2192" y2="25.5964" gradientUnits="userSpaceOnUse">
<stop offset="0.0702" stop-color="#FE2424"/>
<stop offset="0.4635" stop-color="#E93E3A"/>
<stop offset="0.8488" stop-color="#FB8A00"/>
</linearGradient>
<clipPath id="clip0_3981_4590">
<rect width="10" height="14" fill="white" transform="translate(7 5)"/>
</clipPath>
<clipPath id="clip1_3981_4590">
<rect width="10" height="14" fill="white" transform="translate(7 5)"/>
</clipPath>
</defs>
</svg>
