<svg width="32" height="32" viewBox="0 0 32 32" fill="none" xmlns="http://www.w3.org/2000/svg">
<g clip-path="url(#clip0_5773_449)">
<path d="M16 0.0500488C7.15733 0.0500488 0 7.20625 0 16.05C0.774463 37.252 31.228 37.2477 32 16.0499C32 7.20745 24.8439 0.0500488 16 0.0500488ZM29.623 19.7563C27.7798 17.6339 27.7666 14.4816 29.623 12.3438C30.2789 14.6882 30.2789 17.4121 29.623 19.7563ZM19.7062 2.42708C17.5837 4.27022 14.4316 4.28346 12.2938 2.42708C14.648 1.78589 17.2172 1.74919 19.7062 2.42708ZM1.88235 16.05C1.88235 14.7679 2.05515 13.5254 2.37697 12.3438C4.21007 14.3643 4.20995 17.7359 2.37697 19.7563C2.05515 18.5747 1.88235 17.3323 1.88235 16.05ZM12.2938 29.6731C14.3143 27.84 17.6858 27.8401 19.7062 29.6731C17.3619 30.329 14.6381 30.329 12.2938 29.6731ZM21.6688 28.9782C18.7916 25.5721 13.208 25.5726 10.3312 28.9782C7.09741 27.5547 4.49544 24.9527 3.07187 21.7189C6.47799 18.8418 6.47749 13.258 3.07187 10.3813C4.49537 7.14752 7.09735 4.54555 10.3312 3.12199C13.2083 6.5281 18.7921 6.52754 21.6688 3.12199C24.9026 4.54548 27.5046 7.14752 28.9281 10.3813C25.5219 13.2583 25.5225 18.8423 28.9281 21.7189C27.5046 24.9527 24.9026 27.5547 21.6688 28.9782Z" fill="#EC622B"/>
<path d="M16 7.57935C11.3293 7.57935 7.52942 11.3793 7.52942 16.0499C7.95527 27.2719 24.0465 27.2688 24.4706 16.0498C24.4706 11.3793 20.6707 7.57935 16 7.57935ZM16 22.6382C12.3672 22.6382 9.41177 19.6827 9.41177 16.0499C9.74294 7.32171 22.2584 7.3241 22.5882 16.05C22.5882 19.6827 19.6328 22.6382 16 22.6382Z" fill="#EC622B"/>
<path d="M16 11.3441C13.5767 11.3247 12.2759 14.2836 13.8978 16.05C12.2757 17.8169 13.5772 20.7754 16.0001 20.7559C18.4311 20.7646 19.7223 17.8302 18.1023 16.05C19.7225 14.2692 18.4307 11.3354 16 11.3441ZM16 13.2264C16.519 13.2264 16.9412 13.6487 16.9412 14.1676C16.894 15.4145 15.1059 15.4142 15.0588 14.1676C15.0588 13.6487 15.481 13.2264 16 13.2264ZM16 18.8735C15.481 18.8735 15.0588 18.4514 15.0588 17.9323C15.1061 16.6855 16.8941 16.6858 16.9412 17.9323C16.9412 18.4514 16.519 18.8735 16 18.8735Z" fill="#EC622B"/>
</g>
<defs>
<clipPath id="clip0_5773_449">
<rect width="32" height="32" fill="white"/>
</clipPath>
</defs>
</svg>
