<svg width="32" height="32" viewBox="0 0 32 32" fill="none" xmlns="http://www.w3.org/2000/svg">
<path d="M23.1581 18.8235C22.1407 18.2115 20.9706 17.8824 19.7647 17.8824H16.7716L16.4131 16.0895C18.4124 14.9571 19.7647 12.8102 19.7647 10.353V3.76471C19.7647 1.68885 18.0759 0 16 0H10.3529C8.27708 0 6.58824 1.68885 6.58824 3.76471V10.353C6.58824 12.8102 7.94058 14.9571 9.93989 16.0895L9.58137 17.8824H6.58824C2.95548 17.8824 0 20.8378 0 24.4706V32H22.5882H23.5294H32C32 27.7929 32 23.0449 32 18.8235H23.1581ZM18.1024 19.7647L16.5825 22.2979L14.7653 21.3892L16.3898 19.7647H18.1024ZM8.47059 3.76471C8.47059 2.72678 9.31501 1.88235 10.3529 1.88235H16C17.0379 1.88235 17.8824 2.72678 17.8824 3.76471V6.58824H14.1176C13.0797 6.58824 12.2353 5.74381 12.2353 4.70588H10.3529C10.3529 5.74381 9.50852 6.58824 8.47059 6.58824V3.76471ZM8.47059 10.353V8.47059C9.59423 8.47059 10.6037 7.97515 11.2941 7.19203C11.9845 7.97515 12.994 8.47059 14.1176 8.47059H17.8824V10.353C17.6451 16.5889 8.70569 16.5842 8.47059 10.353ZM14.6313 16.779L14.9783 18.5142L13.1765 20.316L11.3746 18.5142L11.7217 16.779C12.6767 16.9951 13.6745 16.9955 14.6313 16.779ZM9.96311 19.7647L11.5876 21.3892L9.77042 22.2979L8.25054 19.7647H9.96311ZM1.88235 24.4706C1.88235 22.05 3.71953 20.0512 6.07266 19.7935L9.05311 24.761L12.2353 23.1699V30.1176H1.88235V24.4706ZM14.1176 30.1176V23.1699L17.2998 24.761L20.28 19.794C21.1179 19.8859 21.9143 20.1998 22.5882 20.7063V30.1176H14.1176ZM30.1176 30.1176H24.4706V28.2353H30.1176V30.1176ZM30.1176 26.3529H24.4706V24.4706H30.1176V26.3529ZM24.4706 22.5882V20.7059H30.1176V22.5882H24.4706Z" fill="#EC622B"/>
</svg>
