<svg width="32" height="32" viewBox="0 0 32 32" fill="none" xmlns="http://www.w3.org/2000/svg">
<g clip-path="url(#clip0_5773_495)">
<path d="M0 0V16.9412H4.70588V19.3204C4.70588 21.7214 5.17641 24.1249 6.07454 26.3529H3.76471V32H22.5882V26.3529H20.2784C21.1765 24.1249 21.6471 21.7214 21.6471 19.3204V16.9412H32V10.3529V0H0ZM30.1176 4.58679C28.7967 4.24552 27.7545 3.20333 27.4133 1.88235H30.1176V4.58679ZM4.58673 1.88235C4.24552 3.20333 3.20333 4.24552 1.88235 4.58679V1.88235H4.58673ZM1.88235 12.3544C3.20333 12.6957 4.24552 13.7378 4.58673 15.0588H1.88235V12.3544ZM20.7059 30.1176H5.64706V28.2353H20.7059V30.1176ZM19.7647 19.3204C19.7647 21.7364 19.2353 24.1553 18.2302 26.3529H8.12273C7.11768 24.1553 6.58824 21.7364 6.58824 19.3204V12.2353C6.63567 10.9881 8.42359 10.9891 8.47059 12.2353V16.7951L9.25446 16.9279C9.2662 16.9299 10.4529 17.148 11.5255 17.9352C12.9232 18.9611 13.4822 20.4797 13.1869 22.4487L15.0484 22.7278C15.479 19.8575 14.4364 18.0433 13.268 16.9412H19.7647V19.3204ZM10.3529 15.0588V12.2353C10.2542 8.74064 5.32963 8.40602 4.73644 11.822C3.95344 11.11 2.9701 10.6151 1.88235 10.4318V6.50937C4.24351 6.11156 6.11156 4.24351 6.50937 1.88235H25.4906C25.8885 4.24351 27.7565 6.11156 30.1176 6.50937V10.4318C27.7565 10.8296 25.8884 12.6977 25.4906 15.0588H10.3529ZM30.1176 15.0588H27.4132C27.7545 13.7378 28.7966 12.6957 30.1176 12.3544V15.0588Z" fill="#EC622B"/>
<path d="M15.9999 3.76465C13.4051 3.76465 11.2941 5.87571 11.2941 8.47053C11.5306 14.7049 20.4702 14.7033 20.7058 8.47047C20.7058 5.87571 18.5948 3.76465 15.9999 3.76465ZM15.9999 11.2941C14.443 11.2941 13.1764 10.0275 13.1764 8.47053C13.3183 4.72986 18.6821 4.73092 18.8235 8.47059C18.8235 10.0275 17.5569 11.2941 15.9999 11.2941Z" fill="#EC622B"/>
</g>
<defs>
<clipPath id="clip0_5773_495">
<rect width="32" height="32" fill="white"/>
</clipPath>
</defs>
</svg>
