<svg width="32" height="32" viewBox="0 0 32 32" fill="none" xmlns="http://www.w3.org/2000/svg">
<g clip-path="url(#clip0_5773_507)">
<path d="M32 24.0001V3.29419H0V24.0001H12.9696L12.4049 26.8236H10.3529V28.706H21.6471V26.8236H19.5951L19.0304 24.0001H32ZM30.1176 18.353H22.5882V5.17654H30.1176V18.353ZM11.2941 18.353V5.17654H20.7059V18.353H11.2941ZM9.41177 5.17654V18.353H1.88235V5.17654H9.41177ZM1.88235 22.1177V20.2354H30.1176V22.1177C28.8903 22.1177 3.10049 22.1177 1.88235 22.1177ZM17.6755 26.8236H14.3245L14.8892 24.0001H17.1108L17.6755 26.8236Z" fill="#EC622B"/>
<path d="M3.80223 15.2662L5.60942 15.7926L7.52935 9.20094V8H3.76465V9.88235H5.3703L3.80223 15.2662Z" fill="#EC622B"/>
<path d="M14.5883 8V9.88235H16.1939L14.6258 15.2662L16.433 15.7926L18.353 9.20094V8H14.5883Z" fill="#EC622B"/>
<path d="M26.0762 9.88235L24.5082 15.2662L26.3153 15.7926L28.2353 9.20094V8H24.4706V9.88235H26.0762Z" fill="#EC622B"/>
</g>
<defs>
<clipPath id="clip0_5773_507">
<rect width="32" height="32" fill="white"/>
</clipPath>
</defs>
</svg>
