<svg width="32" height="32" viewBox="0 0 32 32" fill="none" xmlns="http://www.w3.org/2000/svg">
<g clip-path="url(#clip0_5773_520)">
<path d="M31.9837 6.7844C31.9837 5.42211 30.7172 4.31381 29.1602 4.31381C27.0486 4.28828 25.6472 6.36478 26.6802 7.96451L24.6983 9.89141C22.9485 8.34317 20.3273 8.04159 18.2526 8.91355L17.3342 7.3064C19.8657 6.09093 18.9123 2.68662 15.9837 2.66675C13.0549 2.68673 12.1019 6.09137 14.6332 7.3064L13.7148 8.91355C11.6391 8.04121 9.01808 8.34394 7.26912 9.89141L5.28726 7.96451C6.32004 6.36445 4.91894 4.28833 2.80719 4.31381C-0.574516 4.3871 -1.05213 8.5109 2.20346 9.1975L4.68961 26.6005V30.6667H27.2778V26.6005L29.764 9.1975C31.0316 8.95489 31.9837 7.96534 31.9837 6.7844ZM5.75571 20.7844H14.1014L11.9837 23.255L14.1014 25.7256H6.46159L5.75571 20.7844ZM15.9837 25.1766L14.3367 23.255L15.9837 21.3334L17.6308 23.255L15.9837 25.1766ZM17.8661 20.7844H26.2117L25.5059 25.7256H17.8661L19.9837 23.255L17.8661 20.7844ZM5.52042 19.1373L4.11292 9.2849L11.5021 16.4687L15.9837 8.62581L20.4654 16.4687L27.8545 9.2849L26.447 19.1373H5.52042ZM29.1602 5.96087C29.6792 5.96087 30.1014 6.33025 30.1014 6.7844C30.0541 7.87541 28.2661 7.87513 28.219 6.7844C28.219 6.33025 28.6412 5.96087 29.1602 5.96087ZM23.4357 11.1189L20.9139 13.5706L19.0948 10.3873C20.5189 9.80241 22.2921 10.0484 23.4357 11.1189ZM15.9837 4.31381C16.5027 4.31381 16.9249 4.68324 16.9249 5.13734C16.8777 6.22835 15.0896 6.22807 15.0426 5.13734C15.0426 4.68319 15.4648 4.31381 15.9837 4.31381ZM12.8726 10.3873L11.0536 13.5706L8.53174 11.1189C9.67458 10.0491 11.4475 9.80197 12.8726 10.3873ZM2.80726 5.96087C3.32622 5.96087 3.74843 6.33025 3.74843 6.7844C3.70119 7.87541 1.91314 7.87513 1.86608 6.7844C1.86608 6.33025 2.28829 5.96087 2.80726 5.96087ZM25.3955 29.0197H6.57196V27.3726H25.3955V29.0197Z" fill="#EC622B"/>
</g>
<defs>
<clipPath id="clip0_5773_520">
<rect width="32" height="32" fill="white"/>
</clipPath>
</defs>
</svg>
