<svg width="32" height="32" viewBox="0 0 32 32" fill="none" xmlns="http://www.w3.org/2000/svg">
<g opacity="0.2" clip-path="url(#clip0_2825_4863)">
<path d="M23.9155 12.1046C23.8615 12.1046 23.8075 12.1052 23.7537 12.1062C23.4189 12.113 23.1962 11.7641 23.3367 11.4602C23.7973 10.4632 24.0608 9.35649 24.0767 8.18993C24.1377 3.72556 20.5195 0.0298074 16.0548 0.00018244C11.5685 -0.0296301 7.92247 3.59812 7.92247 8.0775C7.92247 9.28587 8.1881 10.4321 8.66378 11.4613C8.80403 11.7647 8.5806 12.113 8.24635 12.1062C8.19253 12.1052 8.13853 12.1046 8.08447 12.1046C3.60416 12.1046 -0.0241533 15.7522 0.00715917 20.2397C0.0381592 24.6869 3.70728 28.2971 8.15435 28.2594C10.0538 28.2432 11.7965 27.5712 13.1679 26.4589C13.4652 26.2177 13.9088 26.4284 13.9088 26.8112V27.8692C13.9088 30.0183 12.3686 30.2849 11.1735 31.2884C10.886 31.5298 11.0625 32 11.4378 32H20.5624C20.9364 32 21.1131 31.5331 20.8288 31.2901C19.6459 30.2791 18.1229 30.0535 18.1229 27.8852V26.8366C18.1229 26.4549 18.5645 26.2437 18.862 26.4828C20.2339 27.5849 21.973 28.2484 23.867 28.2596C28.3059 28.2857 31.962 24.6786 31.9928 20.2397C32.0241 15.7522 28.3958 12.1046 23.9155 12.1046Z" fill="#FF8C5A"/>
<path d="M21.9394 16.0785C21.8988 16.0785 21.8583 16.0789 21.8179 16.0797C21.5667 16.0847 21.3996 15.8231 21.505 15.5951C21.8506 14.8474 22.0483 14.0174 22.0603 13.1425C22.106 9.79417 19.3912 7.02236 16.0413 7.00014C12.6751 6.97778 9.93934 9.69859 9.93934 13.0581C9.93934 13.9644 10.1386 14.824 10.4956 15.596C10.6008 15.8236 10.4331 16.0847 10.1824 16.0797C10.142 16.0789 10.1015 16.0785 10.0609 16.0785C6.6992 16.0785 3.97678 18.8142 4.00027 22.1798C4.02353 25.5152 6.77657 28.2228 10.1133 28.1945C11.5386 28.1824 12.8461 27.6784 13.8751 26.8442C14.0982 26.6633 14.4311 26.8213 14.4311 27.1084V27.9019C14.4311 29.5137 13.2754 29.7137 12.3786 30.4663C12.1629 30.6474 12.2954 31 12.577 31H19.4234C19.704 31 19.8366 30.6498 19.6233 30.4676C18.7357 29.7093 17.593 29.5401 17.593 27.9139V27.1275C17.593 26.8412 17.9243 26.6828 18.1476 26.8621C19.1769 27.6887 20.4818 28.1863 21.903 28.1947C25.2336 28.2143 27.9768 25.509 28 22.1798C28.0234 18.8142 25.301 16.0785 21.9394 16.0785Z" fill="#FFAA5F"/>
<path d="M19.9596 20.0523C19.9326 20.0523 19.9056 20.0526 19.8786 20.0531C19.7112 20.0565 19.5998 19.8821 19.67 19.7301C19.9005 19.2316 20.0323 18.6782 20.0402 18.095C20.0707 15.8628 18.2608 14.0149 16.0276 14.0001C13.7834 13.9852 11.9596 15.7991 11.9596 18.0387C11.9596 18.6429 12.0925 19.216 12.3304 19.7307C12.4006 19.8824 12.2888 20.0565 12.1216 20.0531C12.0947 20.0526 12.0677 20.0523 12.0406 20.0523C9.79951 20.0523 7.98456 21.8761 8.00022 24.1199C8.01573 26.3434 9.85109 28.1485 12.0756 28.1297C13.0258 28.1216 13.8975 27.7856 14.5835 27.2294C14.7322 27.1089 14.9541 27.2142 14.9541 27.4056V27.9346C14.9541 29.0092 14.1836 29.1424 13.5858 29.6442C13.442 29.7649 13.5303 30 13.718 30H18.2823C18.4694 30 18.5578 29.7666 18.4156 29.6451C17.8239 29.1396 17.062 29.0268 17.062 27.9426V27.4183C17.062 27.2275 17.2829 27.1219 17.4318 27.2414C18.118 27.7924 18.9879 28.1242 19.9353 28.1298C22.1558 28.1428 23.9846 26.3393 24 24.1199C24.0157 21.8761 22.2007 20.0523 19.9596 20.0523Z" fill="#FFE17D"/>
<path d="M17.9799 24.0262C17.9663 24.0262 17.9528 24.0263 17.9394 24.0266C17.8557 24.0282 17.8 23.941 17.8351 23.865C17.9503 23.6158 18.0162 23.3391 18.0202 23.0475C18.0354 21.9314 17.1305 21.0075 16.0138 21C14.8918 20.9926 13.9799 21.8995 13.9799 23.0194C13.9799 23.3215 14.0463 23.608 14.1653 23.8653C14.2003 23.9412 14.1445 24.0282 14.0609 24.0266C14.0474 24.0263 14.0339 24.0262 14.0204 24.0262C12.8998 24.0262 11.9923 24.9381 12.0002 26.0599C12.0079 27.1717 12.9256 28.0743 14.0379 28.0648C14.5129 28.0608 14.9488 27.8928 15.2918 27.6147C15.3662 27.5544 15.4771 27.6071 15.4771 27.7028V27.9673C15.4771 28.5046 15.0919 28.5712 14.793 28.8221C14.7211 28.8825 14.7652 29 14.8591 29H17.1412C17.2348 29 17.279 28.8833 17.2078 28.8225C16.912 28.5698 16.5311 28.5134 16.5311 27.9713V27.7092C16.5311 27.6137 16.6415 27.5609 16.7159 27.6207C17.0591 27.8962 17.494 28.0621 17.9677 28.0649C19.0779 28.0714 19.9924 27.1697 20.0001 26.0599C20.0079 24.9381 19.1004 24.0262 17.9799 24.0262Z" fill="#FFF5D6"/>
</g>
<defs>
<clipPath id="clip0_2825_4863">
<rect width="32" height="32" fill="white"/>
</clipPath>
</defs>
</svg>
