<svg width="32" height="32" viewBox="0 0 32 32" fill="none" xmlns="http://www.w3.org/2000/svg">
<g clip-path="url(#clip0_5773_463)">
<path d="M18.4041 13.753C13.7746 9.09762 9.02746 7.35246 8.45045 7.02954L0 31.9435L25.1285 23.7131C24.7587 22.9989 22.9918 18.3661 18.4041 13.753ZM5.90967 20.4456C8.06339 22.0609 9.96779 23.9681 11.6216 26.1343L9.72024 26.7571C8.32788 25.066 6.85045 23.6067 5.27094 22.3287L5.90967 20.4456ZM10.3592 21.7979C9.18048 20.6126 7.92953 19.5469 6.55107 18.5548L7.15745 16.767C8.8103 17.8601 10.2986 19.0779 11.6811 20.4686C13.2789 22.0753 14.4862 23.66 15.3321 24.9191L13.5299 25.5093C12.5897 24.2212 11.5036 22.9489 10.3592 21.7979ZM13.0308 19.1266C11.4396 17.5261 9.7184 16.141 7.78825 14.9071L8.39006 13.1329C10.619 14.4243 12.5909 15.944 14.393 17.7568C16.5159 19.8911 18.01 22.05 18.9909 23.7206L17.2067 24.3049C16.301 22.9047 14.9227 21.0292 13.0308 19.1266ZM4.61666 24.2577C5.67754 25.1594 6.70859 26.1736 7.76864 27.3963L3.02516 28.95L4.61666 24.2577ZM20.8393 23.1152C19.8029 21.2942 18.1532 18.8385 15.7425 16.4148C13.732 14.3923 11.5234 12.7134 9.01249 11.2977L9.56684 9.66339C14.8987 12.1205 20.3009 17.9207 22.4822 22.5771L20.8393 23.1152Z" fill="#EC622B"/>
<path d="M30.6542 8.13135C29.9976 8.78797 29.9248 9.44313 29.8766 9.8767C29.8412 10.1948 29.8294 10.3019 29.6449 10.4864C29.4605 10.6709 29.3533 10.6828 29.0353 10.7181C28.6017 10.7663 27.9464 10.8391 27.2899 11.4957C26.6332 12.1524 26.5604 12.8076 26.5122 13.2411C26.4769 13.5592 26.465 13.6664 26.2804 13.8509C26.0958 14.0355 25.9886 14.0475 25.6705 14.0828C25.237 14.131 24.5818 14.2038 23.9252 14.8604L25.271 16.2062C25.4555 16.0217 25.5627 16.0097 25.8808 15.9744C27.2327 15.9132 28.3431 14.7991 28.4038 13.4513C28.4392 13.1332 28.4511 13.0261 28.6357 12.8415C28.8202 12.657 28.9273 12.6451 29.2453 12.6098C29.6789 12.5616 30.3341 12.4889 30.9907 11.8323C31.6473 11.1757 31.7201 10.5205 31.7683 10.0869C31.8036 9.76884 31.8155 9.66169 32 9.4772L30.6542 8.13135Z" fill="#EC622B"/>
<path d="M17.9737 6.38586C18.0091 6.0677 18.0209 5.96055 18.2055 5.77606C18.39 5.59144 18.4973 5.57958 18.8154 5.54424C19.2489 5.49603 19.9041 5.42319 20.5608 4.76657C21.2174 4.10995 21.2901 3.45479 21.3383 3.02122C21.3737 2.70313 21.3855 2.59604 21.57 2.41155C21.7545 2.22706 21.8617 2.21513 22.1797 2.17986C22.6133 2.13164 23.2685 2.05887 23.9251 1.40225L22.5792 0.0563965C22.3948 0.240885 22.2877 0.252812 21.9696 0.288086C21.5361 0.336302 20.8809 0.40907 20.2243 1.06563C19.5677 1.72225 19.4949 2.37748 19.4467 2.81104C19.4113 3.12914 19.3995 3.23623 19.215 3.42072C19.0305 3.60527 18.9233 3.6172 18.6052 3.65253C18.1717 3.70069 17.5165 3.77352 16.8598 4.43014C16.2031 5.08676 16.1303 5.74199 16.0821 6.17555C16.0468 6.49365 16.0349 6.60087 15.8503 6.78542L17.1961 8.13121C17.8527 7.47465 17.9255 6.81942 17.9737 6.38586Z" fill="#EC622B"/>
<path d="M22.5761 8.13306L23.9217 6.78746L25.2673 8.13306L23.9217 9.47866L22.5761 8.13306Z" fill="#EC622B"/>
<path d="M26.6132 6.7876L27.9588 5.442L29.3044 6.7876L27.9588 8.1332L26.6132 6.7876Z" fill="#EC622B"/>
<path d="M18.539 9.47827L19.8846 8.13267L21.2302 9.47827L19.8846 10.8239L18.539 9.47827Z" fill="#EC622B"/>
<path d="M12.4842 3.42212L13.8298 2.07652L15.1754 3.42212L13.8298 4.76772L12.4842 3.42212Z" fill="#EC622B"/>
<path d="M27.2849 18.2258L28.6305 16.8802L29.9761 18.2258L28.6305 19.5714L27.2849 18.2258Z" fill="#EC622B"/>
<path d="M24.5782 26.5107H26.4815V28.414H24.5782V26.5107Z" fill="#EC622B"/>
<path d="M28.3848 22.7043H30.288V24.6076H28.3848V22.7043Z" fill="#EC622B"/>
<path d="M3.64246 5.57495H5.54571V7.47821H3.64246V5.57495Z" fill="#EC622B"/>
<path d="M7.44897 1.76855H9.35223V3.67181H7.44897V1.76855Z" fill="#EC622B"/>
</g>
<defs>
<clipPath id="clip0_5773_463">
<rect width="32" height="32" fill="white"/>
</clipPath>
</defs>
</svg>
