<svg width="40" height="40" viewBox="0 0 40 40" fill="none" xmlns="http://www.w3.org/2000/svg">
<rect width="40" height="40" rx="10" fill="#242D3D"/>
<path d="M12.2411 19.7541C12.5333 20.0522 12.9905 20.0793 13.3127 19.8354L13.405 19.7541L20 13.0266L26.595 19.7541C26.8872 20.0522 27.3444 20.0793 27.6666 19.8354L27.7589 19.7541C28.0511 19.456 28.0777 18.9896 27.8386 18.661L27.7589 18.5668L20.582 11.2459C20.2898 10.9478 19.8325 10.9207 19.5103 11.1646L19.418 11.2459L12.2411 18.5668C11.9196 18.8947 11.9196 19.4262 12.2411 19.7541Z" fill="#FCC211"/>
<path d="M12.2411 28.7541C12.5333 29.0522 12.9905 29.0793 13.3127 28.8354L13.405 28.7541L20 22.0266L26.595 28.7541C26.8872 29.0522 27.3444 29.0793 27.6666 28.8354L27.7589 28.7541C28.0511 28.456 28.0777 27.9896 27.8386 27.661L27.7589 27.5668L20.582 20.2459C20.2898 19.9478 19.8325 19.9207 19.5103 20.1646L19.418 20.2459L12.2411 27.5668C11.9196 27.8947 11.9196 28.4262 12.2411 28.7541Z" fill="#FCC211"/>
</svg>
